<svg xmlns="http://www.w3.org/2000/svg" width="143.927" height="146.641" viewBox="0 0 143.927 146.641"><defs><style>.a{fill:#fcdd14;}</style></defs><path class="a" d="M2712.131,3390.778a2.842,2.842,0,0,0-4.8-3.049,21.178,21.178,0,0,1-3.188,3.888,34.357,34.357,0,0,0-2.634-11.963v0c-.026-.063-.057-.124-.089-.186a2.846,2.846,0,0,0-3.634-1.337,2.817,2.817,0,0,0-.782.492,8.445,8.445,0,1,1-9.589-9.658c.06-.071.117-.144.171-.222l.012-.015.007-.012a2.782,2.782,0,0,0,.434-2.142c0-.018-.009-.035-.012-.053-.014-.06-.028-.121-.046-.181s-.042-.133-.066-.2l-.011-.03a2.832,2.832,0,0,0-.782-1.13l-.031-.031-.011-.008c-.026-.023-.055-.042-.082-.063a2.868,2.868,0,0,0-.678-.394,34.322,34.322,0,0,0-11.943-2.624,21.038,21.038,0,0,1,23.142-4.893,21.376,21.376,0,0,1,11.528,11.537,2.782,2.782,0,0,0,.612.916,2.844,2.844,0,0,0,4.636-3.106,27.041,27.041,0,0,0-14.579-14.592l-.044-.021a26.723,26.723,0,0,0-33.593,11.933c-.008.015-.012.031-.02.046a2.9,2.9,0,0,0-.163.368c-.009.024-.015.048-.023.072a2.787,2.787,0,0,0-.09.353c0,.021-.01.042-.014.064a2.867,2.867,0,0,0-.034.386c0,.034,0,.067,0,.1a2.965,2.965,0,0,0,.027.387v.005c.009.056.026.11.038.165a2.827,2.827,0,0,0,.763,1.428h0l.008.006a2.921,2.921,0,0,0,.258.227c.042.032.087.061.131.092s.117.079.179.116c.024.014.046.032.071.045s.066.032.1.048l.085.041c.067.031.134.058.2.082l.094.035q.108.035.216.06c.029.007.057.016.086.022a2.858,2.858,0,0,0,.3.047c.016,0,.033,0,.049,0,.087.007.175.011.262.01l.1,0c.074,0,.148-.01.222-.019l.053,0a28.618,28.618,0,0,1,11.734.741,25.679,25.679,0,0,0-3.371,17.785v.006a2.867,2.867,0,0,0,.263.787c.017.034.036.067.055.1a2.7,2.7,0,0,0,.147.236c.024.035.048.071.073.1a2.931,2.931,0,0,0,.237.275l.012.014,0,0,0,0,.013.012a2.818,2.818,0,0,0,.276.236c.034.026.07.05.106.074a2.651,2.651,0,0,0,.232.145c.035.02.071.04.108.058a2.692,2.692,0,0,0,.335.144l.023.009a2.736,2.736,0,0,0,.418.107l.013,0a25.66,25.66,0,0,0,17.785-3.373,28.6,28.6,0,0,1,.74,11.731c0,.03,0,.059-.008.088,0,.051-.009.1-.012.152s-.007.1-.007.151,0,.127.007.191.006.1.012.157c.01.082.022.163.039.245.01.047.023.093.035.139s.027.1.043.154.036.1.056.153.033.085.052.127.05.108.077.16c.01.018.017.037.026.055a.456.456,0,0,1,.025.039c.049.085.1.167.159.247.02.029.039.058.06.086a3.09,3.09,0,0,0,.232.268l.009.009h0v0a2.824,2.824,0,0,0,1.348.744c.082.019.163.043.247.056h0a2.823,2.823,0,0,0,.377.026c.038,0,.075,0,.112,0a2.806,2.806,0,0,0,.379-.033c.021,0,.042-.01.063-.013a2.727,2.727,0,0,0,.359-.093l.063-.019a2.82,2.82,0,0,0,.389-.173l.025-.011c.019-.01.036-.022.055-.032l.095-.056A26.8,26.8,0,0,0,2712.131,3390.778Z" transform="translate(-2665.736 -3253.627)"/><path class="a" d="M2710.923,3383.407a2.8,2.8,0,0,0,1.421.768,2.842,2.842,0,0,0,3.371-2.192,27.341,27.341,0,0,0,.47-3.142,2.844,2.844,0,1,0-5.665-.508,21.469,21.469,0,0,1-.368,2.473A2.839,2.839,0,0,0,2710.923,3383.407Z" transform="translate(-2665.736 -3253.627)"/><path d="M2750.978,3294.512a2.843,2.843,0,0,0,3.6,1.8c.87-.292,1.747-.57,2.623-.83a2.844,2.844,0,1,0-1.625-5.45c-.935.281-1.867.573-2.8.885A2.843,2.843,0,0,0,2750.978,3294.512Z" transform="translate(-2665.736 -3253.627)"/><path class="a" d="M2808.828,3337.541l-2.011-2.011,2.011-2.01a2.844,2.844,0,0,0-4.021-4.022l-2.011,2.011-2.011-2.011a2.844,2.844,0,0,0-4.021,4.022l2.01,2.01-2.01,2.011a2.844,2.844,0,0,0,4.021,4.022l2.011-2.011,2.011,2.011a2.844,2.844,0,0,0,4.021-4.022Z" transform="translate(-2665.736 -3253.627)"/><path class="a" d="M2772.628,3366.2l-4.022-4.022,4.022-4.022a2.844,2.844,0,0,0-4.022-4.021l-4.021,4.021-4.022-4.021a2.843,2.843,0,0,0-4.021,4.021l4.021,4.022-4.021,4.022a2.843,2.843,0,0,0,4.021,4.021l4.022-4.021,4.021,4.021a2.844,2.844,0,0,0,4.022-4.021Z" transform="translate(-2665.736 -3253.627)"/><path class="a" d="M2737.136,3266.526l-4.022-4.021,4.022-4.022a2.844,2.844,0,0,0-4.022-4.022l-4.022,4.022-4.021-4.022a2.844,2.844,0,0,0-4.022,4.022l4.022,4.022-4.022,4.021a2.844,2.844,0,0,0,4.022,4.022l4.021-4.022,4.022,4.022a2.844,2.844,0,0,0,4.022-4.022Z" transform="translate(-2665.736 -3253.627)"/><path class="a" d="M2702.465,3296.267l-2.011-2.011,2.011-2.011a2.844,2.844,0,1,0-4.021-4.022l-2.011,2.011-2.011-2.011a2.844,2.844,0,0,0-4.021,4.022l2.01,2.011-2.01,2.011a2.843,2.843,0,0,0,4.021,4.021l2.011-2.011,2.011,2.011a2.843,2.843,0,0,0,4.021-4.021Z" transform="translate(-2665.736 -3253.627)"/><path d="M2744.379,3321.628a2.841,2.841,0,0,0-4.022,0l-4.021,4.021a2.844,2.844,0,0,0,4.021,4.022l4.022-4.022A2.839,2.839,0,0,0,2744.379,3321.628Z" transform="translate(-2665.736 -3253.627)"/><path d="M2721.115,3390.535a34.611,34.611,0,0,0,20.969-33.4,86.135,86.135,0,0,0,37.426-67.672c0-.047-.008-.091-.008-.137s.008-.077.006-.116-.017-.1-.022-.15a2.78,2.78,0,0,0-.045-.306c-.018-.085-.041-.167-.066-.249a2.67,2.67,0,0,0-.1-.28c-.034-.08-.072-.156-.113-.232s-.095-.167-.149-.247-.1-.139-.155-.205-.124-.145-.191-.213-.126-.117-.192-.173-.147-.117-.226-.17-.15-.095-.229-.138-.161-.084-.246-.12-.178-.068-.27-.1-.167-.049-.254-.067a2.788,2.788,0,0,0-.306-.045c-.05,0-.1-.019-.148-.022s-.077.007-.117.007-.09-.01-.136-.008a86.462,86.462,0,0,0-12.4,1.443,2.843,2.843,0,1,0,1.062,5.586,81.562,81.562,0,0,1,8.426-1.142,81.2,81.2,0,0,1-8.1,29.357,34.231,34.231,0,0,1-21.233-21.173c.866-.431,1.737-.851,2.62-1.251a2.843,2.843,0,0,0-2.345-5.18c-1.637.741-3.242,1.537-4.822,2.376a2.766,2.766,0,0,0-.432.23,87.116,87.116,0,0,0-30.347,27.179,34.615,34.615,0,0,0-33.567,21.107c-.021.051-.033.1-.052.154s-.025.073-.037.111a2.766,2.766,0,0,0-.095.405c0,.026-.01.051-.014.078-.009.074-.015.149-.019.223,0,.041,0,.083,0,.124a2.7,2.7,0,0,0,.021.361c0,.045.01.091.017.136.012.068.027.135.044.2.012.047.025.094.04.14.022.075.046.149.074.221s.071.171.112.252c.024.047.052.092.078.138.037.064.077.126.118.186.027.038.052.077.081.114a2.8,2.8,0,0,0,.216.251c.009.01.017.021.026.03.047.047.1.092.149.136l.013.011c.068.058.138.113.212.165h0a2.789,2.789,0,0,0,.458.262l.019.009.042.02c.051.022.1.038.154.057l.072.026c.06.02.12.036.18.052l.092.023c.056.013.112.022.169.031.037.006.074.013.111.017s.1.01.15.013.09.006.136.007.083,0,.124,0,.108,0,.162-.007l.1-.011c.061-.008.122-.016.183-.027l.075-.016c.067-.014.134-.03.2-.049l.05-.016c.057-.018.114-.034.171-.056a29.581,29.581,0,0,1,38.194,38.1,2.835,2.835,0,0,0-.205.883v.015a2.856,2.856,0,0,0,0,.393v.008a2.808,2.808,0,0,0,.058.4l0,.008a3.022,3.022,0,0,0,.1.352l.018.049c.012.029.021.06.033.089a2.854,2.854,0,0,0,.323.562l.045.06a2.863,2.863,0,0,0,.238.275l0,0h0a2.841,2.841,0,0,0,.283.244c.026.02.052.038.079.057.079.056.161.108.247.157l.084.048a2.84,2.84,0,0,0,.307.138l.015,0c.037.014.076.025.114.037.085.028.169.052.255.072l.107.023a2.84,2.84,0,0,0,.362.046h.03a2.761,2.761,0,0,0,.365-.008l.057,0A2.857,2.857,0,0,0,2721.115,3390.535Zm-37.347-48.855a28.9,28.9,0,0,1,21.575-12.043,86.257,86.257,0,0,0-6.153,12.941A35.6,35.6,0,0,0,2683.768,3341.68Zm20.752,2.884a81.4,81.4,0,0,1,34.721-41.255,39.912,39.912,0,0,0,23.56,23.494,80.226,80.226,0,0,1-24.765,26.2,2.835,2.835,0,0,0-.862.567,81.913,81.913,0,0,1-15.722,7.917,34.483,34.483,0,0,0-16.932-16.926Zm18.907,22.261a87.929,87.929,0,0,0,12.933-6.091,28.9,28.9,0,0,1-12.033,21.5A35.813,35.813,0,0,0,2723.427,3366.825Z" transform="translate(-2665.736 -3253.627)"/></svg>