<svg xmlns="http://www.w3.org/2000/svg" width="146.944" height="134.852" viewBox="0 0 146.944 134.852"><defs><style>.a{fill:#fcdd14;}</style></defs><path d="M2213.186,3718.055a2.943,2.943,0,0,0,0-4.144,2.983,2.983,0,0,0-4.145,0,2.846,2.846,0,0,0-.851,2.057,2.912,2.912,0,0,0,.851,2.087,2.946,2.946,0,0,0,4.145,0Z" transform="translate(-2184.767 -3619.712)"/><path d="M2275.872,3660.16a2.911,2.911,0,1,0-2.087-.853A3.091,3.091,0,0,0,2275.872,3660.16Z" transform="translate(-2184.767 -3619.712)"/><path class="a" d="M2305.265,3657.46a2.922,2.922,0,0,0,1.465-.392l19.574-11.3a2.939,2.939,0,0,0-2.939-5.09l-19.573,11.3a2.939,2.939,0,0,0,1.473,5.484Z" transform="translate(-2184.767 -3619.712)"/><path class="a" d="M2328.772,3672.612h-23.511a2.939,2.939,0,0,0,0,5.878h23.511a2.939,2.939,0,0,0,0-5.878Z" transform="translate(-2184.767 -3619.712)"/><path class="a" d="M2326.3,3705.332l-19.574-11.3a2.939,2.939,0,0,0-2.938,5.092l19.573,11.3a2.908,2.908,0,0,0,1.466.394,2.939,2.939,0,0,0,1.473-5.485Z" transform="translate(-2184.767 -3619.712)"/><path d="M2293.506,3619.712H2281.75a2.987,2.987,0,0,0-.3.015,8.814,8.814,0,0,0-8.5,8.495,3.013,3.013,0,0,0-.016.3v2.944l-54.665,15.133c-.03.008-.057.019-.086.028a8.842,8.842,0,0,0-6.373,8.349h-6.47a20.567,20.567,0,0,0-2.325,41l2.359,9.322a2.943,2.943,0,0,0,2.849,2.215,3.014,3.014,0,0,0,.723-.087,2.933,2.933,0,0,0,2.13-3.57l-1.959-7.738h2.693a8.842,8.842,0,0,0,6.455,8.374c.012,0,.024,0,.037.008l21.494,5.949,4.186,32.8,0,.028a2.938,2.938,0,0,1-2.537,3.288h-.006l-16.35,2.087-.015,0a2.918,2.918,0,0,1-3.2-2.194c0-.012-.008-.023-.011-.035l-5.013-19.783a2.941,2.941,0,1,0-5.7,1.443l5.022,19.818c0,.019.014.035.019.054a8.827,8.827,0,0,0,8.526,6.6,9.735,9.735,0,0,0,1.123-.067l.041-.007,16.3-2.082a3.125,3.125,0,0,0,.339-.066,8.817,8.817,0,0,0,7.313-9.464,2.7,2.7,0,0,0-.022-.336l-3.879-30.387,27,7.472v2.946a2.968,2.968,0,0,0,.015.3,8.816,8.816,0,0,0,8.5,8.5,2.986,2.986,0,0,0,.3.016h11.756a2.94,2.94,0,0,0,2.938-2.939v-105.8A2.938,2.938,0,0,0,2293.506,3619.712Zm-102.862,55.839a14.892,14.892,0,0,1,14.7-14.7h6.465v29.389h-6.465A14.893,14.893,0,0,1,2190.644,3675.551Zm29.19,23.281-.008,0a2.949,2.949,0,0,1-2.144-2.828v-40.9a2.951,2.951,0,0,1,2.154-2.834l.045-.014,53.052-14.687v7.9a2.939,2.939,0,0,0,5.878,0v-16.932a2.941,2.941,0,0,1,2.939-2.939h8.817v99.922h-8.817a2.943,2.943,0,0,1-2.939-2.939v-53.6a2.939,2.939,0,0,0-5.878,0v44.557Z" transform="translate(-2184.767 -3619.712)"/></svg>