<svg xmlns="http://www.w3.org/2000/svg" width="144.687" height="137.147" viewBox="0 0 144.687 137.147"><defs><style>.a{fill:#fcdd14;}</style></defs><path class="a" d="M2559.423,3674.34a4.786,4.786,0,0,0,2.4.654,4.665,4.665,0,0,0,2.125-.525,2.5,2.5,0,0,0,.228-.112l22.417-12.944c.01-.005.021-.009.031-.015.05-.028.093-.064.141-.094.027-.018.056-.035.082-.055a4.777,4.777,0,0,0,.008-7.965c-.034-.024-.07-.047-.106-.07s-.08-.058-.123-.083c-.014-.008-.028-.013-.041-.021l-22.405-12.937a2.507,2.507,0,0,0-.282-.138,4.773,4.773,0,0,0-6.857,3.97,2.726,2.726,0,0,0-.019.3v25.847c0,.023,0,.045,0,.067,0,.063.011.124.013.187,0,.029,0,.059.006.089A4.78,4.78,0,0,0,2559.423,3674.34Zm24.278-17.076-21.636,12.491v-24.983Z" transform="translate(-2500.663 -3619.712)"/><path class="a" d="M2542.9,3691.551h-12.843a3.266,3.266,0,1,0,0,6.531h12.84a9.992,9.992,0,0,0,18.584,0h54.485a3.266,3.266,0,0,0,0-6.531h-54.487C2558.732,3683.322,2545.637,3683.322,2542.9,3691.551Zm9.29,6.318a3.059,3.059,0,1,1,3.265-3.053A3.009,3.009,0,0,1,2552.185,3697.869Z" transform="translate(-2500.663 -3619.712)"/><path d="M2506.248,3651.42a3.317,3.317,0,1,0-2.32.946A3.441,3.441,0,0,0,2506.248,3651.42Z" transform="translate(-2500.663 -3619.712)"/><path d="M2613.642,3725.151a3.265,3.265,0,1,0,4.639,0A3.441,3.441,0,0,0,2613.642,3725.151Z" transform="translate(-2500.663 -3619.712)"/><path d="M2645.333,3629.174a9.794,9.794,0,0,0-9.446-9.445,3.335,3.335,0,0,0-.334-.017H2510.459c-.112,0-.224.006-.334.017a9.792,9.792,0,0,0-9.445,9.445c-.011.11-.017.221-.017.334v6.531a3.266,3.266,0,0,0,6.531,0v-6.531a3.271,3.271,0,0,1,3.265-3.265h125.094a3.271,3.271,0,0,1,3.266,3.265v81.635H2507.194v-48.981a3.266,3.266,0,0,0-6.531,0v58.777a3.336,3.336,0,0,0,.017.334,9.794,9.794,0,0,0,9.445,9.446c.11.011.222.017.334.017h48.981v7.44l-36.954,12.318a3.266,3.266,0,0,0,1.035,6.365,3.184,3.184,0,0,0,1.031-.17l38.676-12.892h19.557l38.676,12.892a3.265,3.265,0,0,0,2.066-6.2l-36.955-12.318v-7.44H2602.9a3.266,3.266,0,1,0,0-6.531h-92.44a3.272,3.272,0,0,1-3.265-3.266v-3.265h131.625v3.265a3.272,3.272,0,0,1-3.266,3.266h-6.53a3.266,3.266,0,1,0,0,6.531h6.53a3.335,3.335,0,0,0,.334-.017,9.8,9.8,0,0,0,9.446-9.446,3.335,3.335,0,0,0,.017-.334v-91.431C2645.35,3629.4,2645.344,3629.284,2645.333,3629.174Zm-65.291,108.092h-14.071v-6.53h14.071Z" transform="translate(-2500.663 -3619.712)"/></svg>