<svg xmlns="http://www.w3.org/2000/svg" width="123.905" height="144.059" viewBox="0 0 123.905 144.059"><defs><style>.a{fill:#fcdd14;}</style></defs><path class="a" d="M2983.15,3316.393a20.2,20.2,0,0,1,10.163,3.312,2.841,2.841,0,0,0,1.586.479,2.881,2.881,0,0,0,1.588-5.286,25.979,25.979,0,0,0-13.065-4.262,2.956,2.956,0,0,0-3.014,2.743A2.881,2.881,0,0,0,2983.15,3316.393Z" transform="translate(-2956.287 -3264.509)"/><path class="a" d="M2993.315,3353.371a20.167,20.167,0,0,1-27.552-28.516,2.883,2.883,0,0,0-4.7-3.339A25.856,25.856,0,0,0,2982.3,3362.4a25.734,25.734,0,0,0,14.191-4.221,2.882,2.882,0,1,0-3.176-4.811Z" transform="translate(-2956.287 -3264.509)"/><path class="a" d="M2972.115,3318.7a2.9,2.9,0,0,0,2.881-2.881,2.921,2.921,0,0,0-.835-2.047,2.883,2.883,0,0,0-4.928,2.047,2.894,2.894,0,0,0,.837,2.016A2.82,2.82,0,0,0,2972.115,3318.7Z" transform="translate(-2956.287 -3264.509)"/><path d="M2982.2,3350.943a14.471,14.471,0,0,0,11.265-5.551l46.918,33.521a13.878,13.878,0,0,0-.513,3.724,14.6,14.6,0,1,0,3.141-8.854l-46.918-33.52a13.782,13.782,0,0,0,0-7.45l46.918-33.521a14.314,14.314,0,1,0-3.141-8.855,13.877,13.877,0,0,0,.513,3.725l-46.919,33.521a14.373,14.373,0,1,0-11.264,23.26Zm72.076,23.05a8.644,8.644,0,1,1-8.644,8.644A8.76,8.76,0,0,1,3054.275,3373.993Zm0-92.2a8.644,8.644,0,1,1-8.644,8.643A8.76,8.76,0,0,1,3054.275,3281.794Zm-72.076,46.1a8.643,8.643,0,1,1-8.644,8.643A8.76,8.76,0,0,1,2982.2,3327.894Z" transform="translate(-2956.287 -3264.509)"/><path class="a" d="M3060.208,3357.5a26,26,0,0,0-20.223,3.5,2.88,2.88,0,1,0,3.176,4.806,20.385,20.385,0,0,1,28.57,6.731,20.383,20.383,0,0,1-7.979,27.9,2.883,2.883,0,0,0,2.7,5.093,25.839,25.839,0,0,0-6.246-48.033Z" transform="translate(-2956.287 -3264.509)"/><path class="a" d="M3044.414,3400.231a20.1,20.1,0,0,1-10.27-16.386,2.88,2.88,0,1,0-5.75.346,25.81,25.81,0,0,0,13.208,21.069,2.881,2.881,0,0,0,2.812-5.029Z" transform="translate(-2956.287 -3264.509)"/><path class="a" d="M3052,3403.642a2.859,2.859,0,0,0-.865,2.045,2.928,2.928,0,0,0,.865,2.047,2.889,2.889,0,0,0,2.016.834,2.977,2.977,0,0,0,2.047-.834,2.926,2.926,0,0,0,0-4.092A2.982,2.982,0,0,0,3052,3403.642Z" transform="translate(-2956.287 -3264.509)"/><path class="a" d="M3031.1,3291.931a2.849,2.849,0,0,0,3.046-2.709,20.164,20.164,0,1,1,40.063,4.316,2.88,2.88,0,0,0,2.407,3.29,2.622,2.622,0,0,0,.443.036,2.879,2.879,0,0,0,2.842-2.441,25.925,25.925,0,1,0-51.506-5.537A2.877,2.877,0,0,0,3031.1,3291.931Z" transform="translate(-2956.287 -3264.509)"/><path class="a" d="M3062.434,3308.884a20.093,20.093,0,0,1-19.271-1.613,2.881,2.881,0,1,0-3.176,4.808,25.833,25.833,0,0,0,24.777,2.074,2.881,2.881,0,1,0-2.33-5.269Z" transform="translate(-2956.287 -3264.509)"/><path class="a" d="M3070.527,3302.424a2.9,2.9,0,1,0,4.061,0A2.978,2.978,0,0,0,3070.527,3302.424Z" transform="translate(-2956.287 -3264.509)"/></svg>