<svg xmlns="http://www.w3.org/2000/svg" width="87.775" height="137.147" viewBox="0 0 87.775 137.147"><defs><style>.a{fill:none;}.b{fill:#fcdd14;}</style></defs><g transform="translate(-3167.02 -3619.712)"><path d="M3208.959,3743.939a2.756,2.756,0,1,0,4.691,1.948,2.834,2.834,0,0,0-.794-1.948A2.877,2.877,0,0,0,3208.959,3743.939Z"/><path d="M3254.78,3638.632a8.226,8.226,0,0,0-7.934-7.934,2.6,2.6,0,0,0-.28-.014h-24.687a2.743,2.743,0,0,0,0,5.486h24.687a2.748,2.748,0,0,1,2.743,2.743v8.228h-27.43a2.743,2.743,0,0,0,0,5.486h27.43v52.116a2.743,2.743,0,1,0,5.486,0v-65.83A2.6,2.6,0,0,0,3254.78,3638.632Z"/><path d="M3252.052,3723.944a2.743,2.743,0,0,0-2.743,2.743v8.228h-76.8V3682.8a2.743,2.743,0,1,0-5.486,0v65.83a2.609,2.609,0,0,0,.015.281,8.226,8.226,0,0,0,7.934,7.934c.092.009.186.014.28.014h71.317c.094,0,.188,0,.28-.014a8.226,8.226,0,0,0,7.934-7.934,2.609,2.609,0,0,0,.015-.281v-21.943A2.744,2.744,0,0,0,3252.052,3723.944Zm-5.486,27.429h-71.317a2.748,2.748,0,0,1-2.743-2.743V3740.4h76.8v8.229A2.748,2.748,0,0,1,3246.566,3751.373Z"/><path d="M3250.1,3713.766a2.788,2.788,0,0,0,0,3.9,2.785,2.785,0,0,0,3.9,0,2.836,2.836,0,0,0,.795-1.948,2.743,2.743,0,0,0-4.692-1.949Z"/><path d="M3169.763,3663.6a2.744,2.744,0,0,0,2.743-2.743v-8.229h27.43a2.743,2.743,0,0,0,0-5.486h-27.43v-8.228a2.748,2.748,0,0,1,2.743-2.743h24.687a2.743,2.743,0,0,0,0-5.486h-24.687a2.6,2.6,0,0,0-.28.014,8.226,8.226,0,0,0-7.934,7.934,2.6,2.6,0,0,0-.015.281v21.943A2.744,2.744,0,0,0,3169.763,3663.6Z"/><path d="M3169.763,3674.571a2.715,2.715,0,1,0-1.948-.8A2.892,2.892,0,0,0,3169.763,3674.571Z"/></g><g transform="translate(-3167.02 -3619.712)"><path class="a" d="M3220.2,3668.509h0a2.892,2.892,0,0,1-.3-.271l0,0a2.736,2.736,0,0,1-.249-.3l-.013-.017a2.7,2.7,0,0,1-.2-.326c-.009-.017-.017-.035-.025-.053a2.527,2.527,0,0,1-.135-.329l-.011-.029a2.592,2.592,0,0,1-.087-.364c0-.028-.009-.056-.013-.085a2.72,2.72,0,0,1-.031-.386v-38.4a8.619,8.619,0,0,1,.426-2.743h-14.14a2.748,2.748,0,0,0-2.743,2.743v38.4a2.72,2.72,0,0,1-.031.386c0,.029-.008.057-.013.085a2.626,2.626,0,0,1-.087.364l-.011.029a2.561,2.561,0,0,1-.135.329c-.008.018-.016.036-.025.053a2.666,2.666,0,0,1-.2.326l-.013.017a2.736,2.736,0,0,1-.249.3l0,0a2.892,2.892,0,0,1-.3.271h0a2.764,2.764,0,0,1-.717.4h0l10.013,10.012,10.012-10.012h0A2.764,2.764,0,0,1,3220.2,3668.509Z"/><path class="b" d="M3235.594,3630.684v-2.743a7.606,7.606,0,0,0-6.782-7.813,2.727,2.727,0,0,0-1.447-.416h-21.943c-.1,0-.189.005-.281.014a8.227,8.227,0,0,0-7.934,7.934c-.009.092-.014.186-.014.281V3663.6h-2.729l-.045,0a2.656,2.656,0,0,0-.45.043c-.02,0-.04,0-.059.009a2.736,2.736,0,0,0-.453.134c-.018.007-.037.013-.055.021a2.76,2.76,0,0,0-.434.228l-.037.023a2.762,2.762,0,0,0-.764.764c-.008.012-.015.025-.023.038a2.744,2.744,0,0,0-.229.433c-.007.018-.012.036-.019.054a2.683,2.683,0,0,0-.135.454c0,.019-.006.039-.009.058a2.809,2.809,0,0,0-.044.452v.06a2.812,2.812,0,0,0,.044.452c0,.019.005.038.009.058a2.7,2.7,0,0,0,.135.453c.007.018.012.037.019.055a2.736,2.736,0,0,0,.229.433c.008.013.015.026.023.038a2.788,2.788,0,0,0,.344.42l16.457,16.458a2.744,2.744,0,0,0,3.879,0l16.457-16.457a2.781,2.781,0,0,0,.344-.421c.008-.012.015-.025.023-.038a2.736,2.736,0,0,0,.229-.433c.007-.018.013-.037.02-.055a2.764,2.764,0,0,0,.134-.453c0-.02.006-.039.009-.059a2.771,2.771,0,0,0,.044-.45v-.062a2.747,2.747,0,0,0-.044-.45c0-.02,0-.039-.009-.059a2.736,2.736,0,0,0-.134-.453c-.007-.018-.013-.037-.02-.055a2.7,2.7,0,0,0-.229-.433c-.008-.013-.015-.026-.023-.038a2.749,2.749,0,0,0-.764-.764l-.037-.023a2.881,2.881,0,0,0-.434-.229l-.055-.02a2.736,2.736,0,0,0-.453-.134c-.019,0-.039-.006-.059-.009a2.654,2.654,0,0,0-.45-.043l-.045,0h-2.729v-35.658a2.749,2.749,0,0,1,5.486,0v2.743Zm-24.686,48.237-10.013-10.012h0a2.764,2.764,0,0,0,.717-.4h0a2.892,2.892,0,0,0,.3-.271l0,0a2.736,2.736,0,0,0,.249-.3l.013-.017a2.666,2.666,0,0,0,.2-.326c.009-.017.017-.035.025-.053a2.561,2.561,0,0,0,.135-.329l.011-.029a2.626,2.626,0,0,0,.087-.364c0-.028.009-.056.013-.085a2.72,2.72,0,0,0,.031-.386v-38.4a2.748,2.748,0,0,1,2.743-2.743h14.14a8.619,8.619,0,0,0-.426,2.743v38.4a2.72,2.72,0,0,0,.031.386c0,.029.008.057.013.085a2.592,2.592,0,0,0,.087.364l.011.029a2.527,2.527,0,0,0,.135.329c.008.018.016.036.025.053a2.7,2.7,0,0,0,.2.326l.013.017a2.736,2.736,0,0,0,.249.3l0,0a2.892,2.892,0,0,0,.3.271h0a2.764,2.764,0,0,0,.717.4h0Z"/></g><path class="b" d="M3195.821,3700.057a2.743,2.743,0,1,0,0,5.486h32.916a2.743,2.743,0,0,0,0-5.486Z" transform="translate(-3167.02 -3619.712)"/><path class="b" d="M3184.85,3713.772a2.743,2.743,0,0,0,2.743,2.743h49.372a2.743,2.743,0,0,0,0-5.486h-49.372A2.743,2.743,0,0,0,3184.85,3713.772Z" transform="translate(-3167.02 -3619.712)"/></svg>