<svg xmlns="http://www.w3.org/2000/svg" width="137.156" height="137.147" viewBox="0 0 137.156 137.147"><defs><style>.a{fill:#fcdd14;}</style></defs><path d="M2938.226,3646.347a2.785,2.785,0,1,0-1.948.794A2.884,2.884,0,0,0,2938.226,3646.347Z" transform="translate(-2823.817 -3619.712)"/><path d="M2826.56,3669.085a2.778,2.778,0,0,0,1.921-.795,2.737,2.737,0,0,0,.822-1.948,2.742,2.742,0,0,0-4.69-1.948,2.781,2.781,0,0,0,0,3.9A2.882,2.882,0,0,0,2826.56,3669.085Z" transform="translate(-2823.817 -3619.712)"/><path d="M2826.56,3658.113a2.742,2.742,0,0,0,2.743-2.743v-8.229h96a2.743,2.743,0,1,0,0-5.486h-96v-13.714a2.747,2.747,0,0,1,2.743-2.743h120.689a2.745,2.745,0,0,1,2.743,2.743v13.714h-8.229a2.743,2.743,0,0,0,0,5.486h8.229v49.848a2.743,2.743,0,0,0,5.486,0v-69.048c0-.095-.005-.189-.014-.281a8.227,8.227,0,0,0-7.933-7.934c-.093-.009-.187-.014-.282-.014H2832.046c-.095,0-.189.005-.281.014a8.229,8.229,0,0,0-7.934,7.934c-.009.092-.014.186-.014.281v27.429A2.743,2.743,0,0,0,2826.56,3658.113Z" transform="translate(-2823.817 -3619.712)"/><path class="a" d="M2900.619,3658.113a2.743,2.743,0,0,0,0,5.486h32.916a2.743,2.743,0,1,0,0-5.486Z" transform="translate(-2823.817 -3619.712)"/><path class="a" d="M2889.648,3671.828a2.743,2.743,0,0,0,2.743,2.743h49.372a2.743,2.743,0,1,0,0-5.486h-49.372A2.743,2.743,0,0,0,2889.648,3671.828Z" transform="translate(-2823.817 -3619.712)"/><path class="a" d="M2843.018,3702a2.743,2.743,0,1,0,0,5.486h16.457a2.743,2.743,0,0,0,0-5.486Z" transform="translate(-2823.817 -3619.712)"/><path class="a" d="M2864.961,3630.684a2.743,2.743,0,0,0,0,5.486h38.4a2.743,2.743,0,0,0,0-5.486Z" transform="translate(-2823.817 -3619.712)"/><path class="a" d="M2852.043,3631.478a2.876,2.876,0,0,0-.8,1.949,2.718,2.718,0,0,0,2.743,2.743,2.781,2.781,0,0,0,1.922-.795,2.742,2.742,0,0,0,.821-1.948,2.742,2.742,0,0,0-4.689-1.949Z" transform="translate(-2823.817 -3619.712)"/><path class="a" d="M2841.071,3631.478a2.742,2.742,0,1,0,3.9,0A2.88,2.88,0,0,0,2841.071,3631.478Z" transform="translate(-2823.817 -3619.712)"/><path class="a" d="M2878.676,3693.771v-32.915a2.742,2.742,0,0,0-2.743-2.743h-32.915a2.743,2.743,0,0,0-2.743,2.743v32.915a2.743,2.743,0,0,0,2.743,2.743h32.915A2.742,2.742,0,0,0,2878.676,3693.771Zm-5.486-2.743h-27.429V3663.6h27.429Z" transform="translate(-2823.817 -3619.712)"/><path class="a" d="M2921.65,3701.084a16.458,16.458,0,1,0,16.458,16.458A16.679,16.679,0,0,0,2921.65,3701.084Zm0,27.429a10.971,10.971,0,1,1,10.972-10.971A11.119,11.119,0,0,1,2921.65,3728.513Z" transform="translate(-2823.817 -3619.712)"/><path d="M2959.939,3725.784a2.779,2.779,0,0,0,.183-.372c.009-.023.017-.047.026-.07a2.739,2.739,0,0,0,.116-.405.207.207,0,0,0,.007-.026,39.052,39.052,0,0,0,0-14.743,2.743,2.743,0,0,0-2.295-2.194c-.036-.005-.07-.012-.106-.016s-.069-.005-.1-.007c-.059,0-.119-.009-.179-.009h-7.331a30.218,30.218,0,0,0-1.591-3.839l5.154-5.157a2.752,2.752,0,0,0,.617-.914l.008-.02a2.734,2.734,0,0,0,.142-.476l.009-.045a2.8,2.8,0,0,0,.046-.475c0-.017,0-.033,0-.05a2.705,2.705,0,0,0-.045-.466c0-.02-.006-.039-.01-.059a2.765,2.765,0,0,0-.128-.431c-.011-.028-.02-.056-.031-.084a2.861,2.861,0,0,0-.2-.383c-.019-.031-.036-.062-.056-.091l0,0a39.193,39.193,0,0,0-10.425-10.421l0,0c-.029-.02-.06-.035-.089-.054a2.693,2.693,0,0,0-.38-.2c-.032-.013-.064-.024-.1-.036a2.68,2.68,0,0,0-.407-.121c-.031-.007-.063-.011-.094-.017a2.767,2.767,0,0,0-.424-.041h-.1a2.685,2.685,0,0,0-.429.042l-.088.017a2.691,2.691,0,0,0-.445.133l-.044.019a2.785,2.785,0,0,0-.447.236l-.007,0a2.723,2.723,0,0,0-.435.356l-5.167,5.167a30.15,30.15,0,0,0-3.837-1.59v-7.3a2.743,2.743,0,0,0-2.227-2.716,39.223,39.223,0,0,0-14.743,0l-.032.008-.074.018c-.063.015-.127.029-.189.049-.028.008-.055.019-.083.029-.058.02-.116.039-.173.063-.021.009-.042.021-.064.03-.06.028-.121.055-.178.086l-.038.023c-.065.036-.129.074-.19.116l-.015.01c-.068.047-.133.095-.2.147l-.021.019c-.059.05-.118.1-.173.157-.024.024-.045.05-.068.075s-.073.077-.107.117-.082.107-.121.162c-.012.016-.024.031-.035.047q-.072.105-.133.216l0,.007q-.055.1-.1.21l-.014.028c-.025.058-.045.118-.066.177-.009.025-.019.05-.027.075-.015.046-.026.094-.038.141s-.023.081-.031.122-.013.078-.019.117-.018.1-.024.153,0,.08-.007.121-.007.1-.008.151v7.346a30.257,30.257,0,0,0-3.836,1.588l-5.177-5.176-.007-.006a2.748,2.748,0,0,0-.413-.337l-.016-.012a2.763,2.763,0,0,0-.449-.237l-.033-.015a2.741,2.741,0,0,0-.47-.139l-.042-.01a2.819,2.819,0,0,0-.486-.047h-.032a2.725,2.725,0,0,0-.493.047l-.03.005a2.743,2.743,0,0,0-.47.139c-.014.006-.028.01-.041.015a2.838,2.838,0,0,0-.431.228c-.016.01-.033.018-.048.029l-.021.013a39.115,39.115,0,0,0-10.427,10.421l-.02.033,0,0a2.732,2.732,0,0,0-.4,2.025l0,.016a2.751,2.751,0,0,0,.145.487l.014.032a2.792,2.792,0,0,0,.235.446l.018.025a2.736,2.736,0,0,0,.333.407l.005.006,5.178,5.176a30.045,30.045,0,0,0-1.59,3.837h-7.324l-.026,0c-.024,0-.047,0-.07,0a2.74,2.74,0,0,0-2.6,2.276,39.305,39.305,0,0,0-.669,8.236h-50.306a2.747,2.747,0,0,1-2.743-2.743v-38.4a2.743,2.743,0,0,0-5.486,0v38.4c0,.095.005.188.014.281a8.227,8.227,0,0,0,7.934,7.933,2.6,2.6,0,0,0,.281.015h50.823c.05.3.094.611.152.916a2.745,2.745,0,0,0,.139.512l.008.022a2.927,2.927,0,0,0,.194.4l.029.046a2.619,2.619,0,0,0,.248.342c.011.013.023.026.035.038a2.7,2.7,0,0,0,.675.553l.027.017a2.848,2.848,0,0,0,.387.178l.053.019a2.761,2.761,0,0,0,.406.109l.061.009a2.842,2.842,0,0,0,.435.039h7.33a30.137,30.137,0,0,0,1.59,3.836l-5.18,5.177,0,0a2.758,2.758,0,0,0-.348.426l0,0a2.763,2.763,0,0,0-.249.473l0,0a2.733,2.733,0,0,0,.242,2.523l.016.025.015.025a39.062,39.062,0,0,0,10.427,10.427l.024.014c.019.013.04.022.06.034a2.776,2.776,0,0,0,.374.2c.045.019.09.035.135.052a2.683,2.683,0,0,0,.344.1c.043.01.086.022.13.029a2.687,2.687,0,0,0,.472.046h.01a2.738,2.738,0,0,0,.459-.045c.034,0,.067-.011.1-.018a2.814,2.814,0,0,0,.446-.132l.057-.026a2.676,2.676,0,0,0,.441-.232h0a2.721,2.721,0,0,0,.417-.341l.013-.011,5.175-5.176a30.275,30.275,0,0,0,3.838,1.59v7.31a2.754,2.754,0,0,0,.055.56v0c.015.072.034.142.054.212.006.018.009.037.015.056.015.046.033.091.05.136s.028.08.044.119c.009.019.019.037.028.056a2.73,2.73,0,0,0,.562.812l.037.035c.051.048.1.1.157.141.02.017.041.03.061.046.05.039.1.078.153.113.016.011.034.02.051.031.059.038.118.075.18.108l.028.013c.071.037.144.072.218.1l.008,0a2.678,2.678,0,0,0,.522.155h0a39.372,39.372,0,0,0,7.373.7,38.853,38.853,0,0,0,7.232-.679,2.741,2.741,0,0,0,2.306-2.135l0-.007c.013-.061.021-.123.03-.185.005-.029.011-.059.014-.089.005-.048.006-.1.009-.148s.006-.085.007-.129v-7.34a30.185,30.185,0,0,0,3.838-1.589l5.175,5.174c.007.007.016.012.024.02a2.752,2.752,0,0,0,.4.33l.009.006a2.824,2.824,0,0,0,.432.228l.06.026a2.791,2.791,0,0,0,.444.132c.034.007.067.013.1.018a2.725,2.725,0,0,0,.459.045h.009a2.722,2.722,0,0,0,.476-.046c.041-.007.081-.018.122-.027a2.651,2.651,0,0,0,.355-.106c.042-.015.084-.03.125-.048a2.768,2.768,0,0,0,.4-.211c.012-.007.024-.012.035-.02s.02-.01.029-.017a39.133,39.133,0,0,0,10.426-10.427,2.742,2.742,0,0,0-.359-3.505l-5.151-5.152a30.209,30.209,0,0,0,1.588-3.836h7.332a2.763,2.763,0,0,0,.43-.037l.062-.01a2.713,2.713,0,0,0,.406-.109l.051-.018a2.772,2.772,0,0,0,.391-.181l.017-.011a2.717,2.717,0,0,0,.685-.559l.032-.035a2.694,2.694,0,0,0,.245-.336C2959.915,3725.825,2959.927,3725.8,2959.939,3725.784Zm-17.46,18.408-4.96-4.962c-.013-.012-.027-.02-.04-.032a2.745,2.745,0,0,0-.347-.284l-.09-.06a2.783,2.783,0,0,0-.369-.194c-.04-.017-.079-.034-.119-.049a2.628,2.628,0,0,0-.377-.112c-.045-.01-.09-.02-.135-.028a2.622,2.622,0,0,0-.387-.037c-.045,0-.09,0-.135,0a2.889,2.889,0,0,0-.39.037c-.045.008-.089.015-.133.025a2.747,2.747,0,0,0-.381.113c-.042.016-.083.032-.125.05a2.8,2.8,0,0,0-.308.153,24.554,24.554,0,0,1-6.361,2.636l-.013,0c-.081.021-.16.046-.238.074l-.032.012c-.072.027-.142.057-.211.09l-.049.024c-.06.03-.119.062-.176.1l-.069.041c-.049.032-.1.065-.143.1l-.08.06c-.041.033-.081.066-.12.1s-.056.049-.083.075-.07.071-.1.107-.052.056-.077.085-.063.077-.093.117-.046.059-.068.09-.056.084-.083.127-.04.063-.058.095-.048.089-.071.134-.034.068-.049.1-.038.089-.055.134-.03.078-.043.118-.026.083-.038.125-.025.093-.036.141-.015.073-.022.11c-.01.055-.018.109-.025.164,0,.033-.007.066-.01.1,0,.06-.008.119-.009.179,0,.016,0,.032,0,.049v7.01a33.625,33.625,0,0,1-8.229,0v-7.01c0-.043,0-.085-.006-.128v-.015a2.725,2.725,0,0,0-.682-1.671l-.012-.013c-.053-.059-.108-.116-.166-.171l-.03-.027c-.054-.049-.11-.1-.167-.142l-.043-.032c-.057-.042-.115-.082-.175-.12l-.048-.03c-.062-.036-.124-.071-.188-.1l-.048-.023c-.067-.032-.135-.061-.205-.088l-.047-.017c-.07-.025-.142-.048-.214-.067l-.029-.009a24.858,24.858,0,0,1-6.366-2.635,2.544,2.544,0,0,0-.306-.154c-.037-.016-.075-.031-.113-.046a2.788,2.788,0,0,0-.41-.122l-.084-.015a2.8,2.8,0,0,0-.446-.043h-.072a2.847,2.847,0,0,0-.449.043l-.076.016a2.733,2.733,0,0,0-.433.129l-.069.029a2.7,2.7,0,0,0-.417.219l-.047.031a2.732,2.732,0,0,0-.39.319l-.017.014-4.958,4.961a33.644,33.644,0,0,1-5.82-5.822l4.96-4.957.006-.007a2.668,2.668,0,0,0,.336-.411l.017-.025a2.789,2.789,0,0,0,.233-.443l.017-.04a2.729,2.729,0,0,0,.138-.468l.008-.037a2.724,2.724,0,0,0,.048-.494v-.023a2.785,2.785,0,0,0-.049-.505l0-.016a2.7,2.7,0,0,0-.145-.49l-.008-.021a2.715,2.715,0,0,0-.173-.356,24.439,24.439,0,0,1-2.635-6.363,2.734,2.734,0,0,0-.715-1.246l-.019-.019c-.053-.052-.108-.1-.165-.15l-.052-.041c-.047-.038-.1-.075-.146-.11-.03-.02-.06-.04-.091-.059s-.079-.05-.12-.073-.085-.046-.129-.068l-.1-.047c-.051-.023-.1-.044-.156-.064l-.086-.031c-.056-.019-.112-.036-.169-.051l-.088-.023c-.055-.013-.112-.024-.168-.033-.034-.006-.068-.012-.1-.016-.053-.007-.106-.012-.159-.016s-.08-.005-.12-.006-.052,0-.078,0h-7.011a33.7,33.7,0,0,1,0-8.229h6.957c.018,0,.037,0,.055,0,.039,0,.076-.008.114-.01.082,0,.164-.01.244-.02.054-.007.106-.014.159-.024a2.624,2.624,0,0,0,.322-.082c.042-.014.082-.03.124-.045a2.689,2.689,0,0,0,.263-.115c.037-.019.073-.036.109-.056a2.78,2.78,0,0,0,.267-.172c.037-.027.074-.053.109-.082a2.691,2.691,0,0,0,.245-.221c.034-.034.065-.07.1-.106a2.528,2.528,0,0,0,.175-.219c.032-.043.061-.088.09-.133a2.607,2.607,0,0,0,.144-.259c.018-.037.037-.073.054-.111a2.736,2.736,0,0,0,.121-.346c.006-.02.015-.037.02-.056a24.615,24.615,0,0,1,2.636-6.365,2.653,2.653,0,0,0,.161-.327c.012-.028.023-.055.033-.083a2.7,2.7,0,0,0,.126-.425c.006-.029.011-.057.016-.086a2.732,2.732,0,0,0,.042-.433c0-.033,0-.066,0-.1a2.641,2.641,0,0,0-.04-.419c-.006-.038-.015-.074-.023-.112a2.731,2.731,0,0,0-.117-.394c-.014-.037-.029-.073-.045-.109a2.748,2.748,0,0,0-.2-.377c-.018-.028-.037-.056-.056-.083a2.67,2.67,0,0,0-.291-.356c-.01-.011-.017-.023-.028-.034l-4.962-4.96a33.572,33.572,0,0,1,5.821-5.819l4.959,4.96.008.006a2.761,2.761,0,0,0,.386.316c.028.019.057.036.085.055a2.843,2.843,0,0,0,.411.216l.021.01a2.794,2.794,0,0,0,.446.132c.04.009.079.017.119.023a2.842,2.842,0,0,0,.46.045h0a2.741,2.741,0,0,0,.467-.045c.038-.007.075-.014.113-.023a2.632,2.632,0,0,0,.428-.127l.028-.009a2.869,2.869,0,0,0,.357-.175,24.6,24.6,0,0,1,6.368-2.635,2.746,2.746,0,0,0,2.054-2.81v-6.862a33.673,33.673,0,0,1,8.229,0v7.014c0,.015,0,.03,0,.045,0,.061,0,.121.009.182,0,.034.006.068.011.1.006.052.014.1.023.155s.016.084.025.125.02.081.031.121.028.1.045.148c.01.031.022.061.034.092.02.054.042.108.066.16.011.026.024.051.036.076.027.054.054.108.084.16.014.024.029.047.044.071.031.05.063.1.1.148l.055.074c.034.044.068.088.1.13l.071.077c.035.038.071.075.108.111s.056.052.085.078.074.064.112.094.063.048.1.072.08.057.122.084.064.04.1.059.092.053.139.077l.093.045c.052.024.106.047.16.068l.088.032c.057.02.115.039.175.055.015,0,.029.01.045.014a24.728,24.728,0,0,1,6.363,2.636,2.687,2.687,0,0,0,.353.176c.014.006.029.009.043.014a2.577,2.577,0,0,0,.421.125l.1.021a2.774,2.774,0,0,0,.469.046h.011a2.667,2.667,0,0,0,.454-.044c.04-.006.08-.014.12-.023a2.8,2.8,0,0,0,.447-.132l.016-.008a2.823,2.823,0,0,0,.417-.22l.081-.052a2.737,2.737,0,0,0,.389-.317l.008-.006,4.959-4.959a33.653,33.653,0,0,1,5.817,5.818l-4.956,4.958c-.007.007-.011.015-.018.022a2.772,2.772,0,0,0-.309.378l-.042.063a2.771,2.771,0,0,0-.208.4c-.014.031-.027.062-.039.093a2.745,2.745,0,0,0-.12.405c-.008.036-.016.071-.022.107a2.719,2.719,0,0,0-.04.416c0,.036,0,.071,0,.107a2.743,2.743,0,0,0,.039.415c.007.037.013.074.021.111a2.681,2.681,0,0,0,.117.4c.015.039.03.079.047.118a2.743,2.743,0,0,0,.153.307,24.855,24.855,0,0,1,2.638,6.366c0,.009.007.018.009.027a2.8,2.8,0,0,0,.139.4c.008.019.017.036.026.054a2.656,2.656,0,0,0,.2.351l.011.018a2.8,2.8,0,0,0,.25.313c.016.018.032.036.049.053a2.736,2.736,0,0,0,.292.263l.044.034a2.758,2.758,0,0,0,.735.391l.032.012a2.739,2.739,0,0,0,.394.1l.066.01a2.756,2.756,0,0,0,.409.034h7.017a33.552,33.552,0,0,1,0,8.229h-7.012l-.063,0c-.047,0-.094,0-.14.007s-.1.009-.148.015-.069.01-.1.016c-.06.01-.118.021-.176.035l-.069.017c-.066.018-.132.037-.2.059l-.046.017c-.068.025-.135.052-.2.082l-.044.021c-.063.03-.125.062-.185.1l-.061.037c-.051.031-.1.063-.15.1-.031.021-.06.044-.089.067s-.073.056-.108.086-.078.069-.116.1l-.066.064c-.046.047-.09.095-.132.146l-.036.042c-.047.057-.091.116-.133.178l-.02.029c-.043.064-.083.129-.12.2l-.017.031c-.035.065-.067.132-.1.2l-.02.046c-.027.065-.05.131-.072.2l-.021.065c-.009.032-.021.062-.029.095a24.907,24.907,0,0,1-2.639,6.37,2.7,2.7,0,0,0-.168.342l-.017.043a2.746,2.746,0,0,0-.139.469l-.007.035a2.755,2.755,0,0,0-.046.487v.04a2.8,2.8,0,0,0,.046.477c0,.018.007.035.011.053a2.742,2.742,0,0,0,.135.454c.007.018.014.035.022.052a2.713,2.713,0,0,0,.227.433l.022.032a2.706,2.706,0,0,0,.331.405l.008.01,4.959,4.959A33.623,33.623,0,0,1,2942.479,3744.192Z" transform="translate(-2823.817 -3619.712)"/></svg>