<svg xmlns="http://www.w3.org/2000/svg" width="116.457" height="133.869" viewBox="0 0 116.457 133.869"><defs><style>.a{fill:#fcdd14;}</style></defs><path class="a" d="M2491.954,3339.757a2.849,2.849,0,0,0-3.943.824l-4.679,7.149a2.849,2.849,0,0,0,4.769,3.117l4.677-7.151A2.842,2.842,0,0,0,2491.954,3339.757Z" transform="translate(-2384.303 -3269.116)"/><path class="a" d="M2496.036,3329.1a2.849,2.849,0,0,0-3.62,1.769c-.245.708-.508,1.413-.765,2.116l-.186.5a2.849,2.849,0,1,0,5.348,1.967l.183-.5c.273-.742.549-1.485.8-2.238A2.847,2.847,0,0,0,2496.036,3329.1Z" transform="translate(-2384.303 -3269.116)"/><path class="a" d="M2489.932,3280.638a2.849,2.849,0,1,0-4.64,3.306,52.189,52.189,0,0,1,9.053,39.093,2.847,2.847,0,0,0,2.34,3.276,2.7,2.7,0,0,0,.47.039,2.849,2.849,0,0,0,2.806-2.383A57.864,57.864,0,0,0,2489.932,3280.638Z" transform="translate(-2384.303 -3269.116)"/><path class="a" d="M2391.744,3292.149a2.82,2.82,0,0,0,1.273.3,2.851,2.851,0,0,0,2.549-1.568,52.677,52.677,0,0,1,4.178-6.935,2.849,2.849,0,0,0-4.64-3.308,58.554,58.554,0,0,0-4.628,7.687A2.846,2.846,0,0,0,2391.744,3292.149Z" transform="translate(-2384.303 -3269.116)"/><path class="a" d="M2388.264,3302.989a2.762,2.762,0,0,0,.729.1,2.849,2.849,0,0,0,2.751-2.125c.229-.866.481-1.73.757-2.583a2.848,2.848,0,1,0-5.42-1.752c-.31.953-.589,1.917-.845,2.882A2.848,2.848,0,0,0,2388.264,3302.989Z" transform="translate(-2384.303 -3269.116)"/><path class="a" d="M2390.278,3308.933a2.848,2.848,0,1,0-5.665-.6c-1.567,14.825,2.848,29.98,12.431,42.672a2.849,2.849,0,0,0,4.548-3.432C2392.883,3336.039,2388.865,3322.317,2390.278,3308.933Z" transform="translate(-2384.303 -3269.116)"/><path d="M2442.676,3283.118c-.052,0-.1-.008-.155-.008a31.49,31.49,0,0,0-13.347,2.985,2.848,2.848,0,0,0,1.213,5.426,2.8,2.8,0,0,0,1.214-.275,25.815,25.815,0,0,1,10.869-2.439c.016,0,.031,0,.047,0a25.63,25.63,0,0,1,23.189,36.552,2.847,2.847,0,1,0,5.153,2.425,31.321,31.321,0,0,0-28.183-44.669Z" transform="translate(-2384.303 -3269.116)"/><path d="M2461.586,3331.57a26.008,26.008,0,0,1-1.86,1.871,2.847,2.847,0,1,0,3.824,4.218,31.955,31.955,0,0,0,2.273-2.281,2.848,2.848,0,0,0-4.237-3.808Z" transform="translate(-2384.303 -3269.116)"/><path d="M2453.437,3337.633a25.631,25.631,0,0,1-34.109-34.11,2.848,2.848,0,1,0-5.153-2.428,31.328,31.328,0,0,0,41.685,41.693,2.848,2.848,0,0,0-2.423-5.155Z" transform="translate(-2384.303 -3269.116)"/><path d="M2421.331,3298.259a2.857,2.857,0,0,0,2.121-.946,25.28,25.28,0,0,1,1.86-1.871,2.847,2.847,0,0,0-3.828-4.215,31.8,31.8,0,0,0-2.273,2.281,2.849,2.849,0,0,0,2.12,4.751Z" transform="translate(-2384.303 -3269.116)"/><path class="a" d="M2442.517,3334.379a19.936,19.936,0,1,0-19.937-19.936A20.205,20.205,0,0,0,2442.517,3334.379Zm0-34.177a14.241,14.241,0,1,1-14.24,14.241A14.432,14.432,0,0,1,2442.517,3300.2Z" transform="translate(-2384.303 -3269.116)"/><path d="M2487.322,3329.126a46.768,46.768,0,1,0-91.4-9.381c.745,8.608,4.2,17.185,10.563,26.218,2.792,3.964,5.789,7.842,8.69,11.593,2.3,2.977,4.666,6.033,6.925,9.132a7.3,7.3,0,0,0-1.595,1.375,8.3,8.3,0,0,0-1.946,5.433,8.451,8.451,0,0,0,1.881,5.374,8.314,8.314,0,0,0-1.881,5.35,7.8,7.8,0,0,0,5.393,7.687,13.423,13.423,0,0,0,13.2,11.078h10.724a13.423,13.423,0,0,0,13.2-11.089,7.345,7.345,0,0,0,3.442-2.241,8.315,8.315,0,0,0,1.947-5.435,8.448,8.448,0,0,0-1.881-5.374,8.319,8.319,0,0,0,1.881-5.35,8.065,8.065,0,0,0-3.543-6.841c4.26-6,8.444-11.541,12.727-16.855C2481.428,3342.642,2485.355,3335.685,2487.322,3329.126Zm-28.777,41.689h.054a2.469,2.469,0,0,1,2.507,2.681,3.013,3.013,0,0,1-.649,1.939,2.3,2.3,0,0,1-1.855.742h-2.681a2.681,2.681,0,0,0,0,5.362h2.678a2.469,2.469,0,0,1,2.507,2.681,3.017,3.017,0,0,1-.649,1.939,2.3,2.3,0,0,1-1.855.741h-32.166a2.469,2.469,0,0,1-2.508-2.68,3,3,0,0,1,.649-1.938,2.293,2.293,0,0,1,1.855-.743h10.723a2.681,2.681,0,0,0,0-5.362h-10.719a2.469,2.469,0,0,1-2.508-2.681,3,3,0,0,1,.649-1.937,2.293,2.293,0,0,1,1.855-.744Zm-10.666,26.809h-10.724a8.048,8.048,0,0,1-7.573-5.362h25.87A8.047,8.047,0,0,1,2447.879,3397.624Zm9.332-32.17h-29.4c-2.717-3.824-5.592-7.56-8.39-11.178-2.862-3.7-5.823-7.534-8.549-11.4-5.8-8.234-8.941-15.952-9.6-23.593a41.141,41.141,0,0,1,50.658-43.693,41.1,41.1,0,0,1,30.257,52c-1.768,5.892-5.37,12.235-10.706,18.851C2466.676,3352.393,2462,3358.631,2457.211,3365.454Z" transform="translate(-2384.303 -3269.116)"/><path d="M2445.365,3384.377h2.848a2.848,2.848,0,1,0,0-5.7h-2.848a2.848,2.848,0,0,0,0,5.7Z" transform="translate(-2384.303 -3269.116)"/></svg>