<svg xmlns="http://www.w3.org/2000/svg" width="171.789" height="68.605" viewBox="0 0 171.789 68.605"><defs><style>.a{fill:#fcdd14;}</style></defs><g transform="translate(-218.29 -8117.97)"><path class="a" d="M291.353,8130.315a6.812,6.812,0,0,1,7.118-7.034,6.248,6.248,0,0,1,5.31,2.419l-2.308,2.168a3.254,3.254,0,0,0-2.835-1.445,3.915,3.915,0,0,0,0,7.812,3.389,3.389,0,0,0,2.835-1.446l2.308,2.14a6.19,6.19,0,0,1-5.31,2.448A6.819,6.819,0,0,1,291.353,8130.315Z"/><path class="a" d="M306.089,8137.043v-13.428h3.53v1.835a5.772,5.772,0,0,1,4.282-2.169v3.447a4.722,4.722,0,0,0-.973-.083,4.5,4.5,0,0,0-3.309,1.529v8.869Z"/><path class="a" d="M315.235,8130.315a6.835,6.835,0,0,1,6.95-7.034c4,0,6.728,3,6.728,7.4v.779h-9.98a3.618,3.618,0,0,0,3.864,3.113,5.721,5.721,0,0,0,3.587-1.334l1.556,2.279a8.367,8.367,0,0,1-5.532,1.864A6.8,6.8,0,0,1,315.235,8130.315Zm6.95-4.226a3.227,3.227,0,0,0-3.308,2.974h6.617A3.111,3.111,0,0,0,322.185,8126.089Z"/><path class="a" d="M339.534,8137.043v-1.39a5.555,5.555,0,0,1-4.253,1.724,4.474,4.474,0,0,1-4.671-4.449c0-3.141,2.53-4.337,4.671-4.337a5.523,5.523,0,0,1,4.253,1.64v-1.806c0-1.363-1.167-2.252-2.946-2.252a5.655,5.655,0,0,0-3.921,1.584l-1.334-2.363a8.807,8.807,0,0,1,5.866-2.113c3.058,0,5.866,1.224,5.866,5.088v8.674Zm0-3.225v-1.669a3.531,3.531,0,0,0-2.835-1.167c-1.391,0-2.53.723-2.53,2.029,0,1.251,1.139,1.974,2.53,1.974A3.53,3.53,0,0,0,339.534,8133.818Z"/><path class="a" d="M347.264,8133.707V8126.7H345.04v-3.086h2.224v-3.67h3.559v3.67h2.724v3.086h-2.724v6.06c0,.834.444,1.474,1.223,1.474a1.924,1.924,0,0,0,1.223-.39l.751,2.669a4.357,4.357,0,0,1-2.947.863C348.6,8137.377,347.264,8136.1,347.264,8133.707Z"/><path class="a" d="M355.605,8120.056a2.112,2.112,0,1,1,2.113,2.113A2.13,2.13,0,0,1,355.605,8120.056Zm.361,16.987v-13.428H359.5v13.428Z"/><path class="a" d="M366.475,8137.043l-5.393-13.428h3.781l3.5,9.341,3.5-9.341h3.809l-5.394,13.428Z"/><path class="a" d="M376.4,8130.315a6.834,6.834,0,0,1,6.95-7.034c4,0,6.728,3,6.728,7.4v.779H380.1a3.619,3.619,0,0,0,3.865,3.113,5.721,5.721,0,0,0,3.586-1.334l1.557,2.279a8.368,8.368,0,0,1-5.532,1.864A6.8,6.8,0,0,1,376.4,8130.315Zm6.95-4.226a3.226,3.226,0,0,0-3.308,2.974h6.616A3.11,3.11,0,0,0,383.351,8126.089Z"/><path class="a" d="M295.746,8155.121v6.839h-3.531v-18.543h3.531v1.695a5.187,5.187,0,0,1,4.142-2.029c3.448,0,5.95,2.557,5.95,7.034s-2.5,7.061-5.95,7.061A5.134,5.134,0,0,1,295.746,8155.121Zm6.422-5c0-2.308-1.362-3.893-3.392-3.893a3.953,3.953,0,0,0-3.03,1.53v4.754a4.045,4.045,0,0,0,3.03,1.529C300.806,8154.037,302.168,8152.452,302.168,8150.117Z"/><path class="a" d="M308.063,8139.858a2.113,2.113,0,1,1,2.113,2.112A2.13,2.13,0,0,1,308.063,8139.858Zm.361,16.986v-13.427h3.531v13.427Z"/><path class="a" d="M323.77,8156.844l-3.058-4.531-3.086,4.531h-3.92l4.754-6.894-4.476-6.533h3.948l2.78,4.141,2.753-4.141h3.947l-4.5,6.533,4.81,6.894Z"/><path class="a" d="M327.663,8150.117a6.834,6.834,0,0,1,6.951-7.034c4,0,6.728,3,6.728,7.4v.779h-9.981a3.618,3.618,0,0,0,3.864,3.113,5.721,5.721,0,0,0,3.587-1.334l1.556,2.279a8.364,8.364,0,0,1-5.532,1.863A6.8,6.8,0,0,1,327.663,8150.117Zm6.951-4.227a3.228,3.228,0,0,0-3.309,2.975h6.617A3.111,3.111,0,0,0,334.614,8145.89Z"/><path class="a" d="M343.9,8156.844V8138.3h3.531v18.543Z"/><path class="a" d="M291.048,8174.9l1.528-2.473a7.7,7.7,0,0,0,4.644,1.835c1.528,0,2.251-.613,2.251-1.447,0-2.223-7.979-.417-7.979-5.7,0-2.252,1.974-4.226,5.505-4.226a8.577,8.577,0,0,1,5.421,1.835L301,8167.139a5.661,5.661,0,0,0-3.975-1.557c-1.279,0-2.113.584-2.113,1.335,0,2,7.951.334,7.951,5.755,0,2.446-2.085,4.309-5.81,4.309A9.036,9.036,0,0,1,291.048,8174.9Z"/><path class="a" d="M306.172,8173.311v-7.006h-2.224v-3.086h2.224v-3.669h3.558v3.669h2.725v3.086H309.73v6.061c0,.834.446,1.474,1.224,1.474a1.934,1.934,0,0,0,1.223-.39l.751,2.669a4.361,4.361,0,0,1-2.947.862C307.507,8176.981,306.172,8175.7,306.172,8173.311Z"/><path class="a" d="M323.938,8176.647v-1.7a6.286,6.286,0,0,1-4.727,2.03c-2.947,0-4.337-1.613-4.337-4.226v-9.536H318.4v8.146a2.16,2.16,0,0,0,2.475,2.475,3.953,3.953,0,0,0,3.058-1.53v-9.091h3.531v13.428Z"/><path class="a" d="M340.2,8176.647v-1.723a5.213,5.213,0,0,1-4.142,2.057c-3.392,0-5.95-2.558-5.95-7.034,0-4.393,2.53-7.062,5.95-7.062a5.173,5.173,0,0,1,4.142,2.058v-6.84h3.559v18.544Zm0-4.337v-4.754a3.842,3.842,0,0,0-3.058-1.529c-2,0-3.392,1.585-3.392,3.92,0,2.308,1.39,3.893,3.392,3.893A3.84,3.84,0,0,0,340.2,8172.31Z"/><path class="a" d="M346.9,8159.661a2.113,2.113,0,1,1,2.113,2.112A2.129,2.129,0,0,1,346.9,8159.661Zm.361,16.986v-13.428H350.8v13.428Z"/><path class="a" d="M353.436,8169.92a7.1,7.1,0,1,1,7.09,7.061A6.8,6.8,0,0,1,353.436,8169.92Zm10.537,0c0-2.086-1.251-3.893-3.447-3.893s-3.42,1.807-3.42,3.893c0,2.112,1.223,3.92,3.42,3.92S363.973,8172.032,363.973,8169.92Z"/></g><rect class="a" width="87.708" height="4.818" transform="translate(72.176 63.788)"/><rect class="a" width="4.818" height="4.818" transform="translate(166.363 63.788)"/><g transform="translate(-218.29 -8117.97)"><path class="a" d="M232.406,8122.975v14.117H267.55v24.642a10.5,10.5,0,0,1-10.5,10.5H232.406v14.117h24.287a24.974,24.974,0,0,0,24.973-24.974v-38.4Z"/><rect class="a" width="14.116" height="35.131" transform="translate(218.29 8137.104)"/></g></svg>